<svg xmlns="http://www.w3.org/2000/svg" xmlns:xlink="http://www.w3.org/1999/xlink" width="40" zoomAndPan="magnify" viewBox="0 0 30 30.000001" height="40" preserveAspectRatio="xMidYMid meet" version="1.0"><defs><filter x="0%" y="0%" width="100%" height="100%" id="feff58f817"><feColorMatrix values="0 0 0 0 1 0 0 0 0 1 0 0 0 0 1 0 0 0 1 0" color-interpolation-filters="sRGB"/></filter><clipPath id="dc81a4deeb"><path d="M 1.214844 2.902344 L 28.675781 2.902344 L 28.675781 26.964844 L 1.214844 26.964844 Z M 1.214844 2.902344 " clip-rule="nonzero"/></clipPath><clipPath id="9539575826"><path d="M 1.214844 10.003906 C 1.214844 17.644531 14.929688 26.964844 14.929688 26.964844 C 14.929688 26.964844 28.585938 17.578125 28.644531 10.003906 C 28.644531 6.089844 25.457031 2.902344 21.546875 2.902344 C 18.539062 2.902344 15.949219 4.828125 14.929688 7.472656 C 13.910156 4.828125 11.320312 2.902344 8.3125 2.902344 C 4.402344 2.902344 1.214844 6.089844 1.214844 10.003906 " clip-rule="nonzero"/></clipPath><mask id="a952fad110"><g filter="url(#feff58f817)"><rect x="-3" width="36" fill="#000000" y="-3" height="36.000001" fill-opacity="0.82"/></g></mask><clipPath id="fb6ca7e720"><path d="M 1.015625 0.816406 L 22.867188 0.816406 L 22.867188 19.964844 L 1.015625 19.964844 Z M 1.015625 0.816406 " clip-rule="nonzero"/></clipPath><clipPath id="9f45924f2a"><path d="M 1.015625 6.464844 C 1.015625 12.546875 11.929688 19.964844 11.929688 19.964844 C 11.929688 19.964844 22.796875 12.496094 22.84375 6.464844 C 22.84375 3.351562 20.308594 0.816406 17.195312 0.816406 C 14.804688 0.816406 12.742188 2.347656 11.929688 4.453125 C 11.117188 2.347656 9.058594 0.816406 6.664062 0.816406 C 3.550781 0.816406 1.015625 3.351562 1.015625 6.464844 " clip-rule="nonzero"/></clipPath><clipPath id="bd7f38e4eb"><rect x="0" width="24" y="0" height="21"/></clipPath><clipPath id="9038ea8073"><path d="M 0.484375 10.464844 L 17.9375 10.464844 L 17.9375 29.03125 L 0.484375 29.03125 Z M 0.484375 10.464844 " clip-rule="nonzero"/></clipPath><clipPath id="7de3ac5b6d"><path d="M 12 20 L 17.9375 20 L 17.9375 23 L 12 23 Z M 12 20 " clip-rule="nonzero"/></clipPath></defs><g clip-path="url(#dc81a4deeb)"><g clip-path="url(#9539575826)"><path fill="#64ebb6" d="M 1.214844 2.902344 L 28.621094 2.902344 L 28.621094 26.964844 L 1.214844 26.964844 Z M 1.214844 2.902344 " fill-opacity="1" fill-rule="nonzero"/></g></g><g mask="url(#a952fad110)"><g transform="matrix(1, 0, 0, 1, 3, 7)"><g clip-path="url(#bd7f38e4eb)"><g clip-path="url(#fb6ca7e720)"><g clip-path="url(#9f45924f2a)"><path fill="#1b9ce4" d="M 1.015625 0.816406 L 22.824219 0.816406 L 22.824219 19.964844 L 1.015625 19.964844 Z M 1.015625 0.816406 " fill-opacity="1" fill-rule="nonzero"/></g></g></g></g></g><g clip-path="url(#9038ea8073)"><path fill="#ffffff" d="M 12.175781 28.457031 L 12.175781 24.03125 C 12.175781 23.445312 12.652344 22.964844 13.242188 22.964844 L 16.875 22.964844 C 17.460938 22.964844 17.941406 22.488281 17.941406 21.902344 L 17.941406 17.566406 C 17.941406 16.976562 17.460938 16.5 16.875 16.5 C 16.875 16.5 16.46875 16.5 15.933594 16.5 C 15.394531 16.5 14.722656 16.5 14.183594 16.5 C 13.609375 16.40625 12.800781 16.40625 12.53125 16.136719 C 11.457031 14.519531 13.609375 10.484375 10.265625 10.621094 C 9.785156 10.621094 9.183594 10.621094 8.703125 10.621094 C 8.21875 10.621094 7.859375 10.621094 7.859375 10.621094 C 7.269531 10.621094 6.792969 11.097656 6.792969 11.683594 L 6.792969 15.433594 C 6.792969 15.726562 6.671875 15.996094 6.480469 16.1875 C 6.289062 16.378906 6.019531 16.5 5.726562 16.503906 C 3.917969 17.214844 -0.386719 15.597656 0.09375 18.699219 C 0.09375 19.332031 0.09375 20.132812 0.09375 20.777344 C 0.09375 21.417969 0.09375 21.902344 0.09375 21.902344 C 0.09375 22.488281 0.570312 22.964844 1.160156 22.964844 C 1.160156 22.964844 3.1875 22.964844 4.542969 22.964844 C 4.882812 22.964844 5.175781 22.964844 5.386719 22.964844 C 5.800781 22.867188 6.339844 23.136719 6.609375 23.402344 C 7.6875 25.558594 5.535156 30.402344 9.484375 29.519531 C 9.753906 29.519531 10.027344 29.519531 10.265625 29.519531 C 10.75 29.519531 11.109375 29.519531 11.109375 29.519531 C 11.699219 29.519531 12.175781 29.042969 12.175781 28.457031 Z M 12.175781 28.457031 " fill-opacity="1" fill-rule="nonzero"/></g><g clip-path="url(#7de3ac5b6d)"><path fill="#ffffff" d="M 16.953125 20.992188 C 17.039062 21.253906 17 21.550781 16.832031 21.773438 C 16.65625 22.007812 16.375 22.113281 16.101562 22.171875 C 15.773438 22.246094 15.429688 22.269531 15.097656 22.292969 C 14.722656 22.320312 14.347656 22.335938 13.972656 22.339844 C 13.546875 22.34375 13.117188 22.332031 12.691406 22.300781 C 12.523438 22.289062 12.523438 22.554688 12.691406 22.566406 C 13.503906 22.621094 14.320312 22.617188 15.132812 22.554688 C 15.496094 22.527344 15.867188 22.503906 16.222656 22.414062 C 16.535156 22.339844 16.835938 22.199219 17.035156 21.941406 C 17.253906 21.652344 17.320312 21.261719 17.210938 20.921875 C 17.15625 20.761719 16.902344 20.828125 16.953125 20.992188 Z M 16.953125 20.992188 " fill-opacity="1" fill-rule="nonzero"/></g><path fill="#ffffff" d="M 15.367188 21.59375 C 14.683594 21.695312 13.984375 21.722656 13.292969 21.679688 C 13.125 21.667969 13.125 21.933594 13.292969 21.945312 C 14.011719 21.988281 14.726562 21.953125 15.4375 21.847656 C 15.507812 21.839844 15.546875 21.75 15.53125 21.6875 C 15.511719 21.609375 15.441406 21.582031 15.367188 21.59375 Z M 15.367188 21.59375 " fill-opacity="1" fill-rule="nonzero"/><path fill="#ffffff" d="M 7.355469 13.847656 C 7.222656 14.609375 7.425781 15.386719 7.265625 16.144531 C 7.199219 16.445312 7.078125 16.746094 6.855469 16.964844 C 6.613281 17.203125 6.273438 17.300781 5.945312 17.347656 C 5.496094 17.410156 5.039062 17.414062 4.585938 17.394531 C 4.417969 17.386719 4.417969 17.652344 4.585938 17.660156 C 5.015625 17.675781 5.453125 17.671875 5.878906 17.621094 C 6.242188 17.578125 6.613281 17.492188 6.910156 17.265625 C 7.484375 16.824219 7.601562 16.050781 7.589844 15.371094 C 7.582031 14.890625 7.527344 14.398438 7.609375 13.917969 C 7.640625 13.753906 7.386719 13.679688 7.355469 13.847656 Z M 7.355469 13.847656 " fill-opacity="1" fill-rule="nonzero"/><path fill="#ffffff" d="M 7.765625 16.828125 C 7.855469 17.351562 7.386719 17.753906 6.9375 17.894531 C 6.371094 18.070312 5.765625 17.976562 5.179688 18.011719 C 5.011719 18.023438 5.007812 18.285156 5.179688 18.277344 C 5.835938 18.238281 6.523438 18.351562 7.148438 18.101562 C 7.6875 17.882812 8.128906 17.371094 8.019531 16.757812 C 7.988281 16.589844 7.734375 16.664062 7.765625 16.828125 Z M 7.765625 16.828125 " fill-opacity="1" fill-rule="nonzero"/></svg>